# xmcd CD database file
#
# Track frame offsets:
#	150
#	61706
#	117614
#	162837
#	199158
#
# Disc length: 3410 seconds
#
# Revision: 0
# Processed by: cddbd v1.5.2PL0 Copyright (c) Steve Scherf et al.
# Submitted via: CDex 1.70beta2
#
DISCID=3f0d5005
DTITLE=Paul Motian Trio 2000+Two - Live At The Village Vanguard Vol.1
DYEAR=2007
DGENRE=Jazz
TTITLE0=Standard Time
TTITLE1=If You Could See Me Now
TTITLE2=Olivia's Dream
TTITLE3=Morrock
TTITLE4=Last Call
EXTD=YEAR: 2007
EXTT0=
EXTT1=
EXTT2=
EXTT3=
EXTT4=
PLAYORDER=
